<svg width="92" height="59" viewBox="0 0 92 59" fill="none" xmlns="http://www.w3.org/2000/svg">
<g id="&#208;&#155;&#208;&#190;&#208;&#179;&#208;&#190;">
<path id="Vector" fill-rule="evenodd" clip-rule="evenodd" d="M31.5647 0.0296021C32.9318 0.0694 34.2185 0.188794 35.5052 0.347986L35.3042 1.58172C35.7867 1.66132 36.229 1.74092 36.7115 1.86031L36.9126 0.626572C38.2395 0.86536 39.486 1.22354 40.7325 1.62152L40.3304 2.77566C40.7727 2.93486 41.215 3.09405 41.6573 3.29304L42.0997 2.0991C43.3462 2.57667 44.5122 3.13385 45.6783 3.77061L45.035 4.84516C45.4773 5.08395 45.8794 5.32273 46.2815 5.56152L46.9248 4.48698C48.0507 5.16354 49.1364 5.9197 50.1416 6.71566L49.3374 7.67082C49.6993 7.9892 50.0612 8.26779 50.4231 8.58617L51.2675 7.63102C52.2325 8.50657 53.1573 9.42193 54.042 10.4169L53.0769 11.2128C53.3986 11.571 53.6801 11.9292 54.0017 12.2874L54.9668 11.4914C55.771 12.4864 56.535 13.5609 57.2185 14.6753L56.1329 15.312C56.3741 15.71 56.6154 16.108 56.8566 16.5458L57.9423 15.909C58.5857 17.0631 59.1486 18.2173 59.6311 19.451L58.4248 19.8888C58.6259 20.3266 58.7867 20.7644 58.9073 21.2021L60.1136 20.8042C60.5157 21.9583 60.8374 23.192 61.1189 24.4258C55.5699 24.4258 50.0612 24.4258 44.5524 24.4258C41.979 18.8541 36.229 15.3916 30.1573 15.71C23.4021 16.0682 17.6923 21.4011 16.2045 27.2912C14.3951 34.5345 18.5367 41.1807 24.9301 44.2452L19.9038 57.8163L19.4615 58.9704C18.2955 58.4929 17.1294 57.9755 16.0437 57.3785L16.6871 56.304C16.2448 56.0652 15.8427 55.8264 15.4406 55.5876L14.7972 56.6621C13.6713 55.9856 12.5857 55.2294 11.5804 54.4335L12.3846 53.4783C12.0227 53.1599 11.6608 52.8813 11.299 52.563L10.4948 53.5181C9.48951 52.6425 8.56468 51.7272 7.68007 50.772L8.64511 49.9363C8.32343 49.5781 8.04196 49.2199 7.72028 48.8617L6.75524 49.6577C5.95105 48.6628 5.18706 47.5882 4.5035 46.4739L5.58916 45.8371C5.3479 45.4391 5.10664 45.0411 4.86538 44.6034L3.77972 45.2401C3.13636 44.086 2.57343 42.9318 2.09091 41.6981L3.2972 41.2603C3.09615 40.8225 2.93531 40.3848 2.81469 39.947L1.60839 40.345C1.20629 39.1112 0.844406 37.8775 0.603147 36.5642L1.84965 36.3652C1.72902 35.8876 1.6486 35.4498 1.56818 34.9722L0.321678 35.1712C0.160839 33.8977 0.0402098 32.6242 0 31.271H1.2465C1.2465 30.7934 1.2465 30.3557 1.2465 29.8781H0C0.0402098 28.525 0.160839 27.2514 0.321678 25.9779L1.56818 26.1769C1.6486 25.6993 1.72902 25.2615 1.84965 24.784L0.603147 24.585C0.844406 23.2716 1.20629 22.0379 1.60839 20.8042L2.81469 21.2021C2.93531 20.7644 3.09615 20.3266 3.2972 19.8888L2.09091 19.451C2.57343 18.2173 3.13636 17.0631 3.77972 15.909L4.86538 16.5458C5.10664 16.108 5.3479 15.71 5.58916 15.312L4.5035 14.6753C5.18706 13.5609 5.95105 12.4864 6.75524 11.4914L7.72028 12.2874C8.04196 11.9292 8.32343 11.571 8.64511 11.2128L7.68007 10.4169C8.56468 9.42193 9.48951 8.50657 10.4948 7.63102L11.299 8.58617C11.6608 8.26779 12.0227 7.9892 12.3846 7.67082L11.5804 6.71566C12.5857 5.9197 13.6713 5.16354 14.7972 4.48698L15.4406 5.56152C15.8427 5.32273 16.2448 5.08395 16.6871 4.84516L16.0437 3.77061C17.2098 3.13385 18.4161 2.57667 19.6224 2.0991L20.0647 3.29304C20.507 3.09405 20.9493 2.93486 21.3916 2.77566L20.9895 1.62152C22.236 1.22354 23.4825 0.86536 24.8094 0.626572L25.0105 1.86031C25.493 1.74092 25.9353 1.66132 26.4178 1.58172L26.2168 0.347986C27.5035 0.188794 28.7902 0.0694 30.1573 0.0296021V1.26334C30.6399 1.26334 31.0822 1.26334 31.5647 1.26334V0.0296021ZM26.3776 44.2452H30.9615L25.493 58.9704H20.9091L26.3776 44.2452ZM32.6906 44.2452H37.2745L31.8462 58.9704H27.2622L32.6906 44.2452ZM38.521 44.2452H43.1049L37.6766 58.9704H33.0927L38.521 44.2452ZM44.6329 44.2452H49.2168L43.7885 58.9704H39.2045L44.6329 44.2452ZM49.2972 58.9704H45.236L49.2972 48.0658V58.9704Z" fill="#E60025"/>
<path id="Vector_2" fill-rule="evenodd" clip-rule="evenodd" d="M78.6503 25.8983L74.0262 38.3153C71.493 33.6987 73.6241 27.729 78.6503 25.8983ZM58.3041 45.7177H52.5139V50.971H57.8216V52.2446H52.5139V58.9704H50.7447V44.4044H58.3041V45.7177ZM67.7534 58.9704H60.6363V44.4044H62.4457V57.6571H67.7534V58.9704ZM77.6048 58.9704H69.5629V44.4044H77.6048V45.7177H71.4125V50.9312H77.1625V52.2048H71.4125V57.6571H77.6048V58.9704ZM91.9597 58.9704H90.0297L88.18 54.3937H82.1083L80.2185 58.9704H78.3286L84.2797 44.4044H86.0087L91.9597 58.9704ZM87.6573 53.0405L85.1241 46.6728L82.6311 53.0405H87.6573ZM44.1905 42.892H39.8478L38.722 39.748H32.2884L31.1625 42.892H26.7797L33.5349 25.9779H37.4755L44.1905 42.892ZM37.7569 37.0417L35.5454 30.4353L33.2534 37.0417H37.7569ZM58.9073 37.7979C58.9073 41.7777 55.972 43.2502 52.2727 43.2502C48.6538 43.2502 45.5978 41.7777 45.5978 37.7979V25.9779H49.6188V37.7979C49.6188 39.5888 50.4632 40.2256 52.2325 40.2256C54.0419 40.2256 54.8059 39.549 54.8059 37.7979V25.9779H58.9073V37.7979ZM72.0559 29.0025H68.3566V42.892H64.2552V29.0025H60.5157V25.9779H72.0559V29.0025ZM86.2097 42.3349L90.8741 29.7587C93.4877 34.4151 91.3164 40.6236 86.2097 42.3349ZM84.5209 42.7726C83.0734 42.9716 81.4248 42.9716 79.9772 42.6532L86.2499 25.8585C87.6975 26.3759 88.9038 27.2116 89.909 28.3658L84.5209 42.7726ZM78.8513 42.3747C77.4038 41.8573 76.1975 41.0613 75.152 39.947L80.5804 25.4207C82.0279 25.1819 83.6765 25.2217 85.1241 25.5401L78.8513 42.3747Z" fill="#FEFEFE"/>
</g>
</svg>
