<svg width="95" height="15" viewBox="0 0 95 15" fill="none" xmlns="http://www.w3.org/2000/svg">
<g id="&#208;&#151;&#208;&#181;&#209;&#128;&#209;&#130;&#208;&#184;&#208;&#189;&#208;&#179; &#208;&#178;&#208;&#184;&#208;&#183;&#209;&#131;&#208;&#176;&#208;&#187;&#209;&#140;&#208;&#189;&#209;&#139;&#208;&#185;">
<path id="Star 4" d="M27.5 1.61803L28.7083 5.33688L28.8206 5.68237H29.1839H33.0941L29.9306 7.98075L29.6367 8.19427L29.749 8.53976L30.9573 12.2586L27.7939 9.96024L27.5 9.74671L27.2061 9.96024L24.0427 12.2586L25.251 8.53976L25.3633 8.19427L25.0694 7.98075L21.9059 5.68237H25.8161H26.1794L26.2917 5.33688L27.5 1.61803Z" fill="#E60025" stroke="#E60025"/>
<path id="Star 5" d="M7.5 1.61803L8.70833 5.33688L8.82058 5.68237H9.18386H13.0941L9.93064 7.98075L9.63675 8.19427L9.74901 8.53976L10.9573 12.2586L7.79389 9.96024L7.5 9.74671L7.20611 9.96024L4.04267 12.2586L5.25099 8.53976L5.36325 8.19427L5.06936 7.98075L1.90592 5.68237H5.81614H6.17942L6.29167 5.33688L7.5 1.61803Z" fill="white" stroke="black"/>
</g>
</svg>
